<?xml version="1.0" standalone="no"?>
<!DOCTYPE svg PUBLIC "-//W3C//DTD SVG 20010904//EN"
 "http://www.w3.org/TR/2001/REC-SVG-20010904/DTD/svg10.dtd">
<svg version="1.0" xmlns="http://www.w3.org/2000/svg"
 width="200.000000pt" height="200.000000pt" viewBox="0 0 200.000000 200.000000"
 preserveAspectRatio="xMidYMid meet">
<metadata>
Created by potrace 1.11, written by Peter Selinger 2001-2013
</metadata>
<g transform="translate(0.000000,200.000000) scale(0.100000,-0.100000)"
fill="#000000" stroke="none">
<path d="M1315 1500 c-151 -22 -264 -142 -296 -315 -17 -93 -6 -307 19 -378
41 -113 128 -201 225 -228 68 -19 185 -13 252 12 95 35 171 128 190 232 l7 37
-56 0 -55 0 -11 -42 c-29 -109 -94 -157 -214 -158 -120 0 -185 48 -229 168
-18 48 -21 80 -21 207 0 132 3 157 23 208 45 115 116 167 231 167 117 0 172
-42 205 -153 l16 -57 55 0 c48 0 54 2 54 20 0 35 -38 130 -66 167 -66 87 -197
132 -329 113z"/>
<path d="M710 1142 c0 -341 0 -349 -22 -392 -32 -64 -76 -90 -150 -90 -102 0
-158 41 -174 128 -6 32 -7 32 -61 32 l-56 0 7 -47 c18 -132 118 -204 282 -205
125 0 207 44 257 137 21 39 22 53 25 413 l3 372 -56 0 -55 0 0 -348z"/>
</g>
</svg>
